<svg xmlns="http://www.w3.org/2000/svg" width="3000.056" height="522.236" viewBox="2.396 738.887 3000.056 522.236" data-v-191f2d68="" class=""><path fill="#333" d="M52.549 1087.475a137.655 137.655 0 0044.172 92.295 133.424 133.424 0 0043.755 26.639 157.833 157.833 0 0055.726 9.156 157.885 157.885 0 0074.818-16.762 119.084 119.084 0 0049.201-47.881h53.271a173.565 173.565 0 01-67.216 80.205 198.153 198.153 0 01-110.073 29.926 207.874 207.874 0 01-78.412-14.244 186.359 186.359 0 01-60.99-39.621 174.072 174.072 0 01-40.162-59.855 209.983 209.983 0 010-152.033 174.3 174.3 0 0140.162-60.217 186.414 186.414 0 0161.23-39.145 208.952 208.952 0 0178.172-14.486 209.973 209.973 0 0178.348 14.486 174.338 174.338 0 01100.255 99.355 198.888 198.888 0 0114.245 75.84v16.338l-336.502.004zm143.652-160.769c-38.427 0-70.348 10.574-95.77 31.727a134.088 134.088 0 00-46.687 83.799v1.438h284.25v-1.678a141.944 141.944 0 00-16.103-46.688 131.191 131.191 0 00-72.902-60.215 159.09 159.09 0 00-52.788-8.383zM465.073 1095.559v-51.117h154.31v51.117h-154.31zM889.206 1261.053a207.817 207.817 0 01-78.471-14.244 186.286 186.286 0 01-61.23-39.621 174.074 174.074 0 01-40.161-59.855 213.795 213.795 0 01.721-155.023 174.075 174.075 0 0199.955-97.383 196.5 196.5 0 0171.828-13.166 179.546 179.546 0 0191.521 22.627 146.531 146.531 0 0158.717 61.289h1.494v-226.79h48.844v330.039a209.074 209.074 0 01-14.128 78.412 173.572 173.572 0 01-101.034 99.539 213.656 213.656 0 01-78.056 14.176zm0-45.25a153.067 153.067 0 0058.716-10.955 134.215 134.215 0 0045.549-29.926 138.248 138.248 0 0029.568-45.609 162.075 162.075 0 000-115.277 137.347 137.347 0 00-29.568-46.271 134.24 134.24 0 00-45.549-29.926 163.06 163.06 0 00-117.255 0 134.365 134.365 0 00-45.79 29.926 137.327 137.327 0 00-29.568 45.549 162.08 162.08 0 000 115.279 138.166 138.166 0 0029.568 45.609 134.254 134.254 0 0045.55 29.926 153.132 153.132 0 0058.779 11.432v.243zM1915.539 1260.696V1044.5c0-38.828-9.735-67.996-29.211-87.51a98.863 98.863 0 00-72.902-29.148 97.46 97.46 0 00-72.244 28.791c-18.956 19.189-28.432 48.479-28.432 87.867v216.195h-48.902V1044.5a213.243 213.243 0 0110.951-71.828 138.343 138.343 0 0130.646-50.879c13-13.41 28.828-23.76 46.328-30.283a161.643 161.643 0 0158-10.117 147.015 147.015 0 0177.813 20.588 128.476 128.476 0 0151.417 60.932h1.438a124.828 124.828 0 0150.578-60.99 148.459 148.459 0 0178.651-20.471 161.184 161.184 0 0157.94 10.117 125.717 125.717 0 0146.328 30.285 137.716 137.716 0 0130.646 50.877 213.096 213.096 0 0110.951 71.828v216.195h-48.844V1044.5c0-39.383-9.495-68.672-28.49-87.867-40.627-38.535-104.353-38.379-144.789.357-19.234 19.471-28.828 48.643-28.789 87.51v216.195h-49.084v.001zM2317.289 830.397a35.254 35.254 0 01-26.156-11.314c-14.568-14.51-14.607-38.082-.099-52.65 14.51-14.568 38.083-14.607 52.651-.1 14.568 14.51 14.607 38.084.099 52.652a8.918 8.918 0 00-.099.098 35.242 35.242 0 01-26.396 11.314zm-23.941 430.432V882.592h48.844v378.236h-48.844v.001zM2417.667 1260.829v-41.182l257.377-289.402v-1.553h-246.245v-46.1H2742.5v41.357l-257.378 289.4v1.557h264.501v45.916h-331.957l.001.007zM2851.318 830.397a35.314 35.314 0 01-26.274-11.314c-14.396-14.215-14.544-37.406-.327-51.803.106-.113.221-.223.327-.328 14.397-14.545 37.858-14.668 52.402-.271s14.667 37.857.271 52.402a35.26 35.26 0 01-26.399 11.314zm-23.945 430.727V882.592h48.9v378.531h-48.9v.001zM2953.549 1260.696V739.358h48.902v521.338h-48.902z" data-v-191f2d68=""></path><path fill="#F97C1E" d="M1589.348 1088.862l-144.014-100.705c-2.068-1.445-4.451-2.084-6.805-2.045-2.354-.043-4.74.6-6.805 2.045l-198.76 138.986v-35.297l198.76-138.982c2.068-1.447 4.45-2.084 6.805-2.045 2.354-.045 4.74.598 6.805 2.045l139.176 97.322c-21.216-97.117-107.666-169.844-211.146-169.844-119.394 0-216.179 96.785-216.179 216.178 0 65.783 29.422 124.656 75.775 164.309v-87.867l198.76-138.984c2.068-1.447 4.451-2.084 6.805-2.045 2.353-.043 4.74.598 6.804 2.045l141.143 98.695c1.98-11.76 3.068-23.824 3.068-36.146.004-2.581-.102-5.12-.192-7.665z" data-v-191f2d68=""></path></svg>