<svg xmlns="http://www.w3.org/2000/svg" width="228" height="48" fill="none" viewBox="0 0 228 48"><path fill="#6A24FF" d="m20.677 12.674-1.806 6.197-6.185 1.806L0 0l20.677 12.674Zm6.646 0 1.806 6.197 6.185 1.806L48 0 27.323 12.674ZM29.13 29.13l-1.806 6.197L48 48 35.314 27.323 29.13 29.13Zm-8.452 6.197-1.806-6.197-6.185-1.806L0 48l20.677-12.674Z" fill-rule="evenodd" clip-rule="evenodd"></path><path fill="#6A24FF" d="M145.523 33.556c-3.354 0-5.838-1.665-6.786-4.404l2.049-1.178c.691 2.176 2.304 3.252 4.788 3.252 2.458 0 3.79-1.101 3.79-2.766 0-.845-.333-1.485-.973-1.92-.64-.436-1.741-.871-3.252-1.357l-1.716-.564a26.477 26.477 0 0 1-1.485-.666c-.589-.307-1.024-.614-1.306-.921-.589-.64-1.127-1.69-1.127-2.996 0-1.562.538-2.792 1.639-3.688 1.101-.921 2.433-1.382 3.995-1.382 2.842 0 5.019 1.562 6.069 3.917l-1.998 1.153c-.768-1.844-2.125-2.766-4.071-2.766-1.946 0-3.252 1.024-3.252 2.663 0 .794.282 1.383.845 1.793.563.41 1.536.845 2.919 1.28l1.05.333c.205.077.512.18.947.358.897.333 1.101.461 1.793.845.717.384.947.666 1.382 1.178.641.64.897 1.562.897 2.689 0 1.562-.564 2.817-1.716 3.764-1.152.922-2.637 1.383-4.481 1.383Zm10.758-18.257h12.931v2.253h-5.301v15.67h-2.355v-15.67h-5.275v-2.253Zm31.804 17.924h-2.535l-1.46-4.02h-8.066l-1.459 4.02h-2.535l6.683-17.924h2.689l6.683 17.924Zm-8.041-15.082-3.2 8.834h6.427l-3.227-8.834Zm20.884 15.415c-2.714 0-4.967-.896-6.734-2.689-1.767-1.792-2.638-3.995-2.638-6.606 0-2.612.871-4.814 2.638-6.607 1.767-1.792 4.02-2.688 6.734-2.688 3.278 0 6.197 1.69 7.733 4.353l-2.074 1.203c-1.024-1.971-3.2-3.252-5.659-3.252-2.074 0-3.764.666-5.07 1.997-1.306 1.332-1.946 2.996-1.946 4.994 0 1.971.64 3.636 1.946 4.967 1.306 1.332 2.996 1.998 5.07 1.998 2.459 0 4.635-1.28 5.659-3.227l2.074 1.178c-.742 1.332-1.818 2.407-3.2 3.2-1.383.795-2.894 1.179-4.533 1.179Zm18.572-9.551 8.168 9.218h-2.919l-7.733-8.604v8.604h-2.382V15.299h2.382v8.091l7.477-8.091h2.919l-7.912 8.706Z"></path><path fill="#000" d="M104.912 14.5h-8.094v1.679h2.875v17.044h2.381V16.18h2.838V14.5Zm-40.61 16.47v-5.685h7.554v-2.227h-7.554v-5.506h8.194V15.3H61.92v17.924h10.704V30.97h-8.322ZM86.74 15.299h-6.504v17.924h2.381v-6.401h4.123c1.664 0 3.021-.564 4.123-1.665 1.1-1.1 1.664-2.484 1.664-4.097 0-1.639-.563-2.996-1.665-4.097-1.1-1.1-2.458-1.664-4.122-1.664Zm0 9.295h-4.123v-7.068h4.123c1.972 0 3.431 1.486 3.431 3.534 0 .999-.333 1.844-.973 2.535-.64.666-1.46.999-2.458.999Zm25.606 6.273c1.767 1.793 4.021 2.689 6.735 2.689 1.639 0 3.149-.384 4.532-1.178 1.383-.794 2.458-1.87 3.201-3.2L124.74 28c-1.024 1.945-3.201 3.226-5.659 3.226-2.074 0-3.764-.666-5.07-1.997-1.306-1.332-1.946-2.996-1.946-4.968 0-1.997.64-3.662 1.946-4.993 1.306-1.332 2.996-1.998 5.07-1.998 2.458 0 4.635 1.28 5.659 3.252l2.074-1.203c-1.536-2.663-4.456-4.353-7.733-4.353-2.714 0-4.968.896-6.735 2.688-1.766 1.793-2.637 3.995-2.637 6.607s.871 4.814 2.637 6.606Z" fill-rule="evenodd" clip-rule="evenodd"></path><path fill="#000" d="M96.819 31.821h8.093V33.5h-8.094v-1.68Z"></path></svg>